<?xml version="1.0" encoding="UTF-8" standalone="no"?>
<!-- Created with Inkscape (http://www.inkscape.org/) -->

<svg
   xmlns:dc="http://purl.org/dc/elements/1.1/"
   xmlns:cc="http://creativecommons.org/ns#"
   xmlns:rdf="http://www.w3.org/1999/02/22-rdf-syntax-ns#"
   xmlns:svg="http://www.w3.org/2000/svg"
   xmlns="http://www.w3.org/2000/svg"
   xmlns:sodipodi="http://sodipodi.sourceforge.net/DTD/sodipodi-0.dtd"
   xmlns:inkscape="http://www.inkscape.org/namespaces/inkscape"
   width="48.865387mm"
   height="7.3978844mm"
   viewBox="0 0 48.865387 7.3978844"
   version="1.1"
   id="svg4579"
   inkscape:version="0.92.1 r15371"
   sodipodi:docname="NOTUTNER.svg">
  <defs
     id="defs4573" />
  <sodipodi:namedview
     id="base"
     pagecolor="#ffffff"
     bordercolor="#666666"
     borderopacity="1.0"
     inkscape:pageopacity="0.0"
     inkscape:pageshadow="2"
     inkscape:zoom="1.979899"
     inkscape:cx="105.50642"
     inkscape:cy="9.3626433"
     inkscape:document-units="mm"
     inkscape:current-layer="layer1"
     showgrid="false"
     fit-margin-top="0"
     fit-margin-left="0"
     fit-margin-right="0"
     fit-margin-bottom="0"
     inkscape:window-width="1366"
     inkscape:window-height="715"
     inkscape:window-x="-8"
     inkscape:window-y="760"
     inkscape:window-maximized="1" />
  <metadata
     id="metadata4576">
    <rdf:RDF>
      <cc:Work
         rdf:about="">
        <dc:format>image/svg+xml</dc:format>
        <dc:type
           rdf:resource="http://purl.org/dc/dcmitype/StillImage" />
        <dc:title></dc:title>
      </cc:Work>
    </rdf:RDF>
  </metadata>
  <g
     inkscape:label="Font"
     inkscape:groupmode="layer"
     id="layer1"
     transform="translate(-124.48992,-212.41415)">
    <g
       aria-label="NOT"
       style="font-style:normal;font-variant:normal;font-weight:normal;font-stretch:normal;font-size:10.12022495px;line-height:18.97542px;font-family:'Fira Sans ExtraBold';-inkscape-font-specification:'Fira Sans ExtraBold, ';text-align:start;letter-spacing:0px;word-spacing:0px;text-anchor:start;display:inline;fill:#000000;fill-opacity:1;stroke:none;stroke-width:0.26458332;stroke-linecap:butt;stroke-linejoin:miter;stroke-miterlimit:4;stroke-dasharray:none;stroke-opacity:1"
       id="text4557">
      <path
         d="m 130.04592,219.62987 h -2.35801 l -1.78116,-5.29288 0.0304,0.21252 q 0.1012,0.6983 0.15181,1.31563 0.0607,0.60722 0.0607,1.38647 v 2.37826 h -1.65972 v -7.03356 h 2.30741 l 1.84188,5.31312 q -0.12144,-0.75902 -0.19228,-1.36623 -0.0607,-0.60721 -0.0607,-1.39659 v -2.5503 h 1.65971 z"
         style="font-style:normal;font-variant:normal;font-weight:normal;font-stretch:normal;font-family:'Fira Sans ExtraBold';-inkscape-font-specification:'Fira Sans ExtraBold, ';text-align:start;text-anchor:start;fill:#ffffff;fill-opacity:1;stroke:#000000;stroke-width:0.26458332;stroke-miterlimit:4;stroke-dasharray:none;stroke-opacity:1"
         id="path5148" />
      <path
         d="m 134.0763,212.41415 q 1.52816,0 2.37826,0.97154 0.85009,0.97154 0.85009,2.72234 0,1.14358 -0.38456,1.98356 -0.37445,0.82986 -1.10311,1.27515 -0.72865,0.44529 -1.74068,0.44529 -1.52815,0 -2.37825,-0.97154 -0.83998,-0.97154 -0.83998,-2.73246 0,-1.14359 0.37445,-1.97344 0.38457,-0.82986 1.1031,-1.27515 0.72866,-0.44529 1.74068,-0.44529 z m 0,1.34599 q -0.65781,0 -0.97154,0.54649 -0.30361,0.54649 -0.30361,1.8014 0,1.25491 0.31373,1.81152 0.31373,0.54649 0.96142,0.54649 0.66794,0 0.97154,-0.54649 0.30361,-0.54649 0.30361,-1.81152 0,-1.25491 -0.30361,-1.8014 -0.3036,-0.54649 -0.97154,-0.54649 z"
         style="font-style:normal;font-variant:normal;font-weight:normal;font-stretch:normal;font-family:'Fira Sans ExtraBold';-inkscape-font-specification:'Fira Sans ExtraBold, ';text-align:start;text-anchor:start;fill:#ffffff;fill-opacity:1;stroke:#000000;stroke-width:0.26458332;stroke-miterlimit:4;stroke-dasharray:none;stroke-opacity:1"
         id="path5150" />
      <path
         d="m 142.76246,212.59631 -0.19228,1.42695 h -1.65972 v 5.60661 h -1.87224 v -5.60661 h -1.76092 v -1.42695 z"
         style="font-style:normal;font-variant:normal;font-weight:normal;font-stretch:normal;font-family:'Fira Sans ExtraBold';-inkscape-font-specification:'Fira Sans ExtraBold, ';text-align:start;text-anchor:start;fill:#ffffff;fill-opacity:1;stroke:#000000;stroke-width:0.26458332;stroke-miterlimit:4;stroke-dasharray:none;stroke-opacity:1"
         id="path5152" />
    </g>
    <g
       aria-label="UTNER"
       style="font-style:normal;font-variant:normal;font-weight:normal;font-stretch:normal;font-size:10.12022495px;line-height:18.97542px;font-family:'Fira Sans ExtraBold';-inkscape-font-specification:'Fira Sans ExtraBold, ';text-align:start;letter-spacing:0px;word-spacing:0px;text-anchor:start;display:inline;fill:#000000;fill-opacity:1;stroke:none;stroke-width:0.75901693px;stroke-linecap:butt;stroke-linejoin:miter;stroke-opacity:1"
       id="text4561">
      <path
         d="m 149.05617,217.27186 q 0,0.72865 -0.32384,1.3055 -0.31373,0.57686 -0.9513,0.91082 -0.63758,0.32385 -1.55852,0.32385 -1.39659,0 -2.11513,-0.67805 -0.71853,-0.68818 -0.71853,-1.86212 v -4.67555 h 1.87224 v 4.61482 q 0,0.63758 0.22264,0.94118 0.23277,0.29349 0.73878,0.29349 0.50601,0 0.72866,-0.30361 0.22264,-0.3036 0.22264,-0.93106 v -4.61482 h 1.88236 z"
         style="font-style:normal;font-variant:normal;font-weight:normal;font-stretch:normal;font-family:'Fira Sans ExtraBold';-inkscape-font-specification:'Fira Sans ExtraBold, ';text-align:start;text-anchor:start;stroke-width:0.75901693px"
         id="path5155" />
      <path
         d="m 155.04213,212.59631 -0.19229,1.42695 h -1.65971 v 5.60661 h -1.87224 v -5.60661 h -1.76092 v -1.42695 z"
         style="font-style:normal;font-variant:normal;font-weight:normal;font-stretch:normal;font-family:'Fira Sans ExtraBold';-inkscape-font-specification:'Fira Sans ExtraBold, ';text-align:start;text-anchor:start;stroke-width:0.75901693px"
         id="path5157" />
      <path
         d="m 161.12312,219.62987 h -2.35801 l -1.78116,-5.29288 0.0304,0.21252 q 0.1012,0.6983 0.1518,1.31563 0.0607,0.60722 0.0607,1.38647 v 2.37826 h -1.65971 v -7.03356 h 2.30741 l 1.84188,5.31312 q -0.12145,-0.75902 -0.19229,-1.36623 -0.0607,-0.60721 -0.0607,-1.39659 v -2.5503 h 1.65972 z"
         style="font-style:normal;font-variant:normal;font-weight:normal;font-stretch:normal;font-family:'Fira Sans ExtraBold';-inkscape-font-specification:'Fira Sans ExtraBold, ';text-align:start;text-anchor:start;stroke-width:0.75901693px"
         id="path5159" />
      <path
         d="m 166.67153,212.59631 -0.19228,1.32575 h -2.39849 v 1.49779 h 2.09488 v 1.28527 h -2.09488 v 1.599 h 2.56041 v 1.32575 h -4.43266 v -7.03356 z"
         style="font-style:normal;font-variant:normal;font-weight:normal;font-stretch:normal;font-family:'Fira Sans ExtraBold';-inkscape-font-specification:'Fira Sans ExtraBold, ';text-align:start;text-anchor:start;stroke-width:0.75901693px"
         id="path5161" />
      <path
         d="m 169.89419,217.03909 h -0.51613 v 2.59078 h -1.87224 v -7.03356 h 2.43897 q 1.48768,0 2.21633,0.53637 0.73878,0.53638 0.73878,1.6496 0,0.66793 -0.31373,1.11322 -0.30361,0.44529 -0.98166,0.7995 l 1.7508,2.93487 h -2.08477 z m -0.51613,-1.27515 h 0.62745 q 0.97155,0 0.97155,-0.98166 0,-0.45541 -0.27325,-0.66794 -0.26313,-0.21252 -0.7995,-0.21252 h -0.52625 z"
         style="font-style:normal;font-variant:normal;font-weight:normal;font-stretch:normal;font-family:'Fira Sans ExtraBold';-inkscape-font-specification:'Fira Sans ExtraBold, ';text-align:start;text-anchor:start;stroke-width:0.75901693px"
         id="path5163" />
    </g>
  </g>
</svg>
