<?xml version="1.0" encoding="UTF-8" standalone="no"?>
<!-- Created with Inkscape (http://www.inkscape.org/) -->

<svg
   xmlns:dc="http://purl.org/dc/elements/1.1/"
   xmlns:cc="http://creativecommons.org/ns#"
   xmlns:rdf="http://www.w3.org/1999/02/22-rdf-syntax-ns#"
   xmlns:svg="http://www.w3.org/2000/svg"
   xmlns="http://www.w3.org/2000/svg"
   xmlns:sodipodi="http://sodipodi.sourceforge.net/DTD/sodipodi-0.dtd"
   xmlns:inkscape="http://www.inkscape.org/namespaces/inkscape"
   width="80"
   height="16"
   viewBox="0 0 21.166666 4.2333332"
   version="1.1"
   id="svg3746"
   inkscape:version="0.92.1 r15371"
   sodipodi:docname="tutner-mediaplayer.svg">
  <defs
     id="defs3740" />
  <sodipodi:namedview
     id="base"
     pagecolor="#ffffff"
     bordercolor="#666666"
     borderopacity="1.0"
     inkscape:pageopacity="0.0"
     inkscape:pageshadow="2"
     inkscape:zoom="15.839192"
     inkscape:cx="72.728607"
     inkscape:cy="10.016885"
     inkscape:document-units="px"
     inkscape:current-layer="layer1"
     showgrid="true"
     showborder="true"
     inkscape:showpageshadow="false"
     units="px"
     inkscape:window-width="1366"
     inkscape:window-height="715"
     inkscape:window-x="-8"
     inkscape:window-y="760"
     inkscape:window-maximized="1">
    <inkscape:grid
       type="xygrid"
       id="grid29"
       units="px"
       spacingx="0.26458332"
       spacingy="0.26458332"
       empspacing="1"
       dotted="false" />
  </sodipodi:namedview>
  <metadata
     id="metadata3743">
    <rdf:RDF>
      <cc:Work
         rdf:about="">
        <dc:format>image/svg+xml</dc:format>
        <dc:type
           rdf:resource="http://purl.org/dc/dcmitype/StillImage" />
        <dc:title></dc:title>
      </cc:Work>
    </rdf:RDF>
  </metadata>
  <g
     inkscape:label="Layer 1"
     inkscape:groupmode="layer"
     id="layer1"
     transform="translate(0,-292.76667)">
    <text
       inkscape:export-ydpi="96"
       inkscape:export-xdpi="96"
       inkscape:export-filename="D:\PROJEKTE\tutner.mur.at\v2012\development\design\pics\video_button.png"
       id="text66"
       y="295.23682"
       x="-0.30497977"
       style="font-style:normal;font-variant:normal;font-weight:bold;font-stretch:normal;font-size:7.43569708px;line-height:0%;font-family:'Courier New';-inkscape-font-specification:'Courier New, Bold';font-variant-ligatures:normal;font-variant-caps:normal;font-variant-numeric:normal;font-feature-settings:normal;text-align:start;letter-spacing:0px;word-spacing:0px;writing-mode:lr-tb;text-anchor:start;fill:#000000;fill-opacity:1;stroke:none;stroke-width:0.61965156"
       xml:space="preserve"
       transform="scale(0.99401445,1.0060216)"><tspan
         style="font-style:normal;font-variant:normal;font-weight:bold;font-stretch:normal;font-size:7.43569708px;line-height:1.25;font-family:'Courier New';-inkscape-font-specification:'Courier New, Bold';font-variant-ligatures:normal;font-variant-caps:normal;font-variant-numeric:normal;font-feature-settings:normal;text-align:start;writing-mode:lr-tb;text-anchor:start;stroke-width:0.61965156"
         y="295.23682"
         x="-0.30497977"
         id="tspan64"
         sodipodi:role="line">&gt;</tspan></text>
    <path
       inkscape:connector-curvature="0"
       class="st0"
       d="m 4.7624997,292.76667 h 0.582083 c 0.15875,0 0.264584,0.10583 0.264584,0.26458 v 3.70417 c 0,0.15875 -0.105834,0.26458 -0.264584,0.26458 h -0.582083 c -0.15875,0 -0.264583,-0.10583 -0.264583,-0.26458 v -3.70417 c 0,-0.13229 0.105833,-0.26458 0.264583,-0.26458 z m 2.592917,0 h 0.582083 c 0.15875,0 0.264583,0.10583 0.264583,0.26458 v 3.70417 c 0,0.15875 -0.105833,0.26458 -0.264583,0.26458 h -0.582083 c -0.15875,0 -0.264584,-0.10583 -0.264584,-0.26458 v -3.70417 c 0,-0.13229 0.105834,-0.26458 0.264584,-0.26458 z"
       id="path6"
       style="fill:#000000;fill-opacity:1;stroke:none;stroke-width:0.26458332" />
    <g
       id="g912"
       transform="matrix(0.26455321,0,0,0.26458333,-107.3501,-6.4658844)">
      <path
         style="fill:#000000;fill-opacity:1;stroke:none;stroke-width:0.48831233"
         d="m 440.39926,1135.0081 7.28285,-4.0504 v 16 l -7.28285,-3.9857 -2.61677,-0.014 v -8 z"
         id="path76"
         inkscape:connector-curvature="0"
         sodipodi:nodetypes="ccccccc"
         inkscape:export-filename="d:\PROJEKTE\tutner.mur.at\v2012\DEV\design\mejs__mute-button.png"
         inkscape:export-xdpi="96"
         inkscape:export-ydpi="96" />
      <path
         inkscape:export-ydpi="96"
         inkscape:export-xdpi="96"
         inkscape:export-filename="d:\PROJEKTE\tutner.mur.at\v2012\DEV\design\mejs__mute-button.png"
         style="fill:none;stroke:#000000;stroke-width:0.48831233;stroke-miterlimit:4;stroke-opacity:1"
         d="m 448.24276,1136.5549 c 1.19456,0.5939 1.72485,2.1398 1.18446,3.4526 -0.23656,0.5748 -0.65454,1.0359 -1.17658,1.298"
         id="path78"
         inkscape:connector-curvature="0"
         sodipodi:nodetypes="ccc" />
      <path
         inkscape:export-ydpi="96"
         inkscape:export-xdpi="96"
         inkscape:export-filename="d:\PROJEKTE\tutner.mur.at\v2012\DEV\design\mejs__mute-button.png"
         style="fill:none;stroke:#000000;stroke-width:0.48831227;stroke-miterlimit:4;stroke-opacity:1"
         d="m 449.02128,1134.6237 c 2.15773,1.0728 3.11562,3.8651 2.1395,6.2366 -0.4273,1.0382 -1.18231,1.871 -2.12528,2.3444"
         id="path80"
         inkscape:connector-curvature="0"
         sodipodi:nodetypes="ccc" />
      <path
         inkscape:export-ydpi="96"
         inkscape:export-xdpi="96"
         inkscape:export-filename="d:\PROJEKTE\tutner.mur.at\v2012\DEV\design\mejs__mute-button.png"
         style="fill:none;stroke:#000000;stroke-width:0.48831233;stroke-miterlimit:4;stroke-opacity:1"
         d="m 449.82205,1132.6467 c 3.18059,1.5814 4.59256,5.6974 3.15372,9.1931 -0.62986,1.5303 -1.74278,2.758 -3.13276,3.4557"
         id="path82"
         inkscape:connector-curvature="0"
         sodipodi:nodetypes="ccc" />
    </g>
    <g
       id="g957"
       transform="matrix(0.26458449,0,0,0.26450141,-90.624476,-5.5221839)">
      <path
         inkscape:export-ydpi="96"
         inkscape:export-xdpi="96"
         inkscape:export-filename="d:\PROJEKTE\tutner.mur.at\v2012\DEV\design\mejs__mute-button.png"
         sodipodi:nodetypes="ccccccc"
         inkscape:connector-curvature="0"
         id="path101"
         d="m 393.34596,1132.1733 6.6148,-3.6638 v 14.4724 l -6.6148,-3.6052 -2.37674,-0.012 v -7.2362 z"
         style="fill:none;fill-opacity:1;stroke:#000000;stroke-width:0.90644711;stroke-miterlimit:4;stroke-dasharray:none;stroke-opacity:1" />
      <g
         transform="matrix(0.84331744,0,0,0.84331744,80.940168,164.46345)"
         id="text138"
         style="font-style:normal;font-variant:normal;font-weight:normal;font-stretch:normal;font-size:13.33333302px;line-height:25px;font-family:'Courier New';-inkscape-font-specification:'Courier New';text-align:center;letter-spacing:0px;word-spacing:0px;text-anchor:middle;fill:#000000;fill-opacity:1;stroke:none;stroke-width:1px;stroke-linecap:butt;stroke-linejoin:miter;stroke-opacity:1"
         aria-label="x">
        <path
           sodipodi:nodetypes="ccccscsscscscccscscsscscccccccscsscscscccscscsscscccc"
           inkscape:connector-curvature="0"
           id="path140"
           d="m 383.08418,1151.6455 2.50651,2.4024 c 0.16493,0 0.26909,0.01 0.3125,0.026 0.0434,0.013 0.0803,0.043 0.11068,0.091 0.0347,0.048 0.0521,0.1001 0.0521,0.1563 0,0.078 -0.0282,0.1432 -0.0846,0.1953 -0.0564,0.052 -0.15189,0.078 -0.28646,0.078 h -1.75781 c -0.13455,0 -0.23003,-0.026 -0.28646,-0.078 -0.0564,-0.052 -0.0846,-0.1171 -0.0846,-0.1953 0,-0.082 0.0282,-0.1476 0.0846,-0.1953 0.0564,-0.052 0.15189,-0.078 0.28646,-0.078 h 0.90495 l -2.12891,-2.0378 -2.11588,2.0378 h 0.91146 c 0.13021,0 0.22352,0.026 0.27994,0.078 0.0564,0.048 0.0846,0.1131 0.0846,0.1953 0,0.078 -0.0282,0.1432 -0.0846,0.1953 -0.0564,0.052 -0.14971,0.078 -0.27994,0.078 h -1.77735 c -0.13021,0 -0.22352,-0.026 -0.27994,-0.078 -0.0564,-0.052 -0.0846,-0.1171 -0.0846,-0.1953 0,-0.057 0.0152,-0.1088 0.0456,-0.1563 0.0347,-0.048 0.0716,-0.078 0.11068,-0.091 0.0434,-0.017 0.14757,-0.026 0.3125,-0.026 l 2.50651,-2.4024 -2.50781,-2.1354 c -0.15625,0 -0.25608,-0.01 -0.29948,-0.026 -0.0391,-0.017 -0.076,-0.05 -0.11068,-0.098 -0.0304,-0.048 -0.0456,-0.1001 -0.0456,-0.1563 0,-0.078 0.0282,-0.1432 0.0846,-0.1953 0.0564,-0.052 0.15189,-0.078 0.28646,-0.078 h 1.49089 c 0.13455,0 0.22786,0.026 0.27995,0.078 0.0564,0.052 0.0846,0.1193 0.0846,0.2019 0,0.078 -0.0282,0.1432 -0.0846,0.1953 -0.0521,0.052 -0.14538,0.078 -0.27995,0.078 h -0.65104 l 2.12369,1.7773 2.14844,-1.7773 h -0.65104 c -0.13021,0 -0.22569,-0.026 -0.28646,-0.078 -0.0564,-0.052 -0.0846,-0.1193 -0.0846,-0.2019 0,-0.078 0.0282,-0.1432 0.0846,-0.1953 0.0564,-0.052 0.15189,-0.078 0.28646,-0.078 h 1.49089 c 0.13021,0 0.22352,0.026 0.27994,0.078 0.0564,0.052 0.0846,0.1193 0.0846,0.2019 0,0.052 -0.0174,0.1019 -0.0521,0.1497 -0.0304,0.048 -0.0673,0.081 -0.11068,0.098 -0.0391,0.017 -0.13672,0.026 -0.29297,0.026 z" />
      </g>
    </g>
    <g
       id="g1009"
       transform="matrix(0.24164019,0,0,0.26500891,-84.024564,-7.6512981)">
      <path
         style="fill:#000000;fill-opacity:1"
         id="path54"
         d="m 434.50259,1140.8889 c 0,0.4 -0.4,0.7 -0.9,0.7 -0.1,0 -0.2,0 -0.2,-0.1 l -4.9,-1.8 c -0.5,-0.2 -0.6,-0.6 -0.1,-0.8 l 6.2,-3.6 c 0.5,-0.3 0.8,-0.1 0.7,0.5 z"
         class="st0"
         inkscape:connector-curvature="0" />
      <path
         style="fill:#000000;fill-opacity:1"
         id="path56"
         d="m 425.90259,1147.3889 c -1,0 -2,-0.2 -2.9,-0.7 -2,-1 -3.2,-3 -3.2,-5.2 0.1,-3.4 2.9,-6 6.3,-6 2.5,0.1 4.8,1.7 5.6,4.1 l 0.1,-0.1 2.1,1.1 c -0.6,-4.4 -4.7,-7.5 -9.1,-6.9 -3.9,0.6 -6.9,3.9 -7,7.9 0,2.9 1.7,5.6 4.3,7 1.2,0.6 2.5,0.9 3.8,1 2.6,0 5,-1.2 6.6,-3.3 l -1.8,-0.9 c -1.2,1.2 -3,2 -4.8,2 z"
         class="st0"
         inkscape:connector-curvature="0" />
    </g>
  </g>
</svg>
